<?xml version="1.0" encoding="UTF-8"?>
<!DOCTYPE svg PUBLIC "-//W3C//DTD SVG 1.1//EN" "http://www.w3.org/Graphics/SVG/1.1/DTD/svg11.dtd">
<!-- Creator: CorelDRAW -->
<svg xmlns="http://www.w3.org/2000/svg" xml:space="preserve" width="1.70666in" height="1.70666in" version="1.1" style="shape-rendering:geometricPrecision; text-rendering:geometricPrecision; image-rendering:optimizeQuality; fill-rule:evenodd; clip-rule:evenodd"
viewBox="0 0 1707 1707"
 xmlns:xlink="http://www.w3.org/1999/xlink">
 <defs>
  <style type="text/css">
   <![CDATA[
    .fil0 {fill:#333333}
    .fil2 {fill:#999999}
    .fil1 {fill:#CCCCCC}
   ]]>
  </style>
 </defs>
 <g id="Layer_x0020_1">
  <metadata id="CorelCorpID_0Corel-Layer"/>
  <path class="fil0" d="M1683 1509l-1659 0c-13,0 -23,-10 -23,-23l0 -196c0,-97 72,-177 166,-188l0 -19c-36,-30 -57,-73 -57,-120l0 -610c0,-86 70,-155 156,-155l1176 0c85,0 155,69 155,155l0 611c0,46 -21,90 -57,120l0 18c93,11 166,91 166,188l0 195c0,13 -11,24 -23,24zm-1479 -554c-1,-2 -1,-4 -1,-6l0 -581c0,-50 41,-91 92,-91l1117 0c50,0 91,41 91,91l0 587c14,19 25,41 31,65 10,-17 16,-36 16,-56l0 -611c0,-60 -49,-109 -109,-109l-1176 0c-60,0 -108,49 -108,109l0 611c0,20 5,39 16,56 6,-24 16,-46 31,-65zm1004 147c62,7 114,45 143,97 29,-52 81,-89 142,-97 0,-49 0,-86 -32,-125 -29,-35 -69,-52 -110,-52 -107,0 -143,83 -143,177zm-294 -131c-37,41 -37,81 -37,131 61,7 114,45 142,97 29,-52 81,-89 143,-97 0,-41 0,-73 -21,-109 -50,-82 -164,-90 -227,-22zm-329 -2c-39,41 -40,81 -40,133 61,7 114,45 143,97 28,-52 81,-89 142,-97 0,-58 0,-100 -50,-143 -57,-49 -142,-43 -195,10zm-330 -2c-40,40 -42,83 -42,135 62,7 114,45 143,97 28,-52 81,-89 142,-97 0,-41 1,-73 -21,-109 -48,-79 -158,-91 -222,-26zm1099 -89c37,1 73,13 102,32l0 -542c0,-24 -20,-44 -44,-44l-1117 0c-25,0 -45,20 -45,44l0 542c93,-63 219,-29 272,66 62,-114 225,-133 310,-31l21 31c71,-129 260,-130 332,0 34,-61 98,-98 169,-98zm-1023 388c-12,-68 -72,-119 -141,-119l0 0c-79,0 -143,64 -143,143l0 172 285 0c0,-38 3,-166 -1,-196zm184 -119c-75,5 -136,67 -136,143l0 172 285 0c0,-38 3,-166 -2,-195 -11,-71 -76,-122 -147,-120zm338 0c-77,1 -142,65 -142,143l0 172 285 0c0,-38 3,-165 -2,-195 -11,-68 -72,-120 -141,-120zm319 1c-73,7 -130,69 -130,142l0 172 285 0c0,-38 3,-166 -1,-195 -12,-74 -81,-126 -154,-119zm335 -1c-75,6 -133,69 -133,143l0 172 285 0 0 -172c0,-83 -71,-148 -152,-143z"/>
  <path class="fil1" d="M522 976c62,-114 225,-133 310,-31l21 31c71,-129 260,-130 332,0 34,-61 98,-98 169,-98 37,1 73,13 102,32l0 -542c0,-24 -20,-44 -44,-44l-1117 0c-25,0 -45,20 -45,44l0 542c93,-63 219,-29 272,66z"/>
  <path class="fil2" d="M203 368c0,-50 41,-91 92,-91l1117 0c50,0 91,41 91,91l0 587c14,19 25,41 31,65 10,-17 16,-36 16,-56l0 -611c0,-60 -49,-109 -109,-109l-1176 0c-60,0 -108,49 -108,109l0 611c0,20 5,39 16,56 6,-24 16,-46 31,-65 -1,-2 -1,-4 -1,-6l0 -581z"/>
  <path class="fil2" d="M477 993c-48,-79 -158,-91 -222,-26 -40,40 -42,83 -42,135 62,7 114,45 143,97 28,-52 81,-89 142,-97 0,-41 1,-73 -21,-109z"/>
  <path class="fil2" d="M585 969c-39,41 -40,81 -40,133 61,7 114,45 143,97 28,-52 81,-89 142,-97 0,-58 0,-100 -50,-143 -57,-49 -142,-43 -195,10z"/>
  <path class="fil2" d="M914 971c-37,41 -37,81 -37,131 61,7 114,45 142,97 29,-52 81,-89 143,-97 0,-41 0,-73 -21,-109 -50,-82 -164,-90 -227,-22z"/>
  <path class="fil2" d="M1351 925c-107,0 -143,83 -143,177 62,7 114,45 143,97 29,-52 81,-89 142,-97 0,-49 0,-86 -32,-125 -29,-35 -69,-52 -110,-52z"/>
  <path class="fil2" d="M1507 1147c-75,6 -133,69 -133,143l0 172 285 0 0 -172c0,-83 -71,-148 -152,-143z"/>
  <path class="fil2" d="M1326 1267c-12,-74 -81,-126 -154,-119 -73,7 -130,69 -130,142l0 172 285 0c0,-38 3,-166 -1,-195z"/>
  <path class="fil2" d="M996 1462c0,-38 3,-165 -2,-195 -11,-68 -72,-120 -141,-120 -77,1 -142,65 -142,143l0 172 285 0z"/>
  <path class="fil2" d="M664 1462c0,-38 3,-166 -2,-195 -11,-71 -76,-122 -147,-120 -75,5 -136,67 -136,143l0 172 285 0z"/>
  <path class="fil2" d="M332 1462c0,-38 3,-166 -1,-196 -12,-68 -72,-119 -141,-119 -79,0 -143,64 -143,143l0 172 285 0z"/>
 </g>
</svg>
